<?xml version="1.0" encoding="UTF-8"?>
<svg width="46px" height="46px" viewBox="0 0 46 46" version="1.1" xmlns="http://www.w3.org/2000/svg" xmlns:xlink="http://www.w3.org/1999/xlink">
    <!-- Generator: Sketch 42 (36781) - http://www.bohemiancoding.com/sketch -->
    <title>checkmark-checked</title>
    <desc>Created with Sketch.</desc>
    <defs></defs>
    <g id="Symbols" stroke="none" stroke-width="1" fill="none" fill-rule="evenodd">
        <g id="Checkmark/Checked">
            <g id="checkmark-checked">
                <path d="M46,23.2839506 C46,10.2971852 35.7028148,0 22.7160494,0 C10.2971852,0 0,10.2971852 0,23.2839506 C0,35.7028148 10.2971852,46 22.7160494,46 C35.7028148,46 46,35.7028148 46,23.2839506 Z" id="Fill-" fill="#0084FF"></path>
                <path d="M11.3123864,23.9457504 C10.9303673,23.5525013 10.8922668,22.8661497 11.213236,22.4317567 L11.3701894,22.2193392 C11.6974492,21.7764327 12.3181075,21.6882888 12.7600201,22.0251719 L17.7750898,25.8483086 C18.2154124,26.1839796 18.9106714,26.1757699 19.3413586,25.8188979 L33.3103663,14.2440335 C33.7350702,13.8921195 34.4042374,13.9259622 34.7975411,14.3123033 L34.7032462,14.2196777 C35.0998863,14.6092961 35.0998802,15.2398958 34.7081845,15.6233143 L19.2851125,30.7204686 C18.8911998,31.1060573 18.2601742,31.0977798 17.8801637,30.7065982 L11.3123864,23.9457504 Z" id="Fill-" fill="#FFFFFF"></path>
            </g>
        </g>
    </g>
</svg>